<svg id="Ebene_1" data-name="Ebene 1" xmlns="http://www.w3.org/2000/svg" viewBox="0 0 1854.03 560.39"><defs><style>.cls-1,.cls-2,.cls-3{fill:none;}.cls-1,.cls-2{stroke:#fff;stroke-miterlimit:10;}.cls-1{stroke-width:1.36px;}.cls-2{stroke-width:1.35px;}.cls-4{fill:#f84611;}.cls-5{fill:#333;}</style></defs><path class="cls-1" d="M1749,805.18" transform="translate(-8 -22.42)"/><path class="cls-2" d="M1548.06,431.77" transform="translate(-8 -22.42)"/><path class="cls-1" d="M1742.09,839.76" transform="translate(-8 -22.42)"/><path class="cls-3" d="M1290,189.5c-23.41-21.81-54.74-34.34-91.07-34.34-80.05,0-136,60.76-136,147.78,0,25.55,4.85,48.82,13.69,69a135.45,135.45,0,0,0,25.54,38.81c23.9,25.27,57.37,40,96.72,40,80,0,135.95-60.77,135.95-147.78,0-3.68-.14-7.31-.34-10.89C1332.17,249.36,1316,213.72,1290,189.5Z" transform="translate(-8 -22.42)"/><path class="cls-4" d="M1472,249.47c-10.27-55.16-36.41-105.06-76.2-144q-9.45-9.24-19.7-17.45c-49.09-39.43-111.06-60.9-177.2-60.9-75.33,0-145.25,27.83-196.9,78.35-52.32,51.19-81.12,121.31-81.12,197.46a283.31,283.31,0,0,0,22,110.41,266.17,266.17,0,0,0,59.16,87c4.39,4.29,9,8.36,13.6,12.32,50,42.67,114.37,66,183.3,66,75.33,0,145.25-27.83,196.9-78.36,52.32-51.18,81.13-121.3,81.13-197.45A292.18,292.18,0,0,0,1472,249.47Zm-273.1,201.25c-39.35,0-72.82-14.73-96.72-40a135.45,135.45,0,0,1-25.54-38.81c-8.84-20.15-13.69-43.42-13.69-69,0-87,55.9-147.78,136-147.78,36.33,0,67.66,12.53,91.07,34.34,26,24.22,42.19,59.86,44.54,102.55.2,3.58.34,7.21.34,10.89C1334.86,390,1279,450.72,1198.91,450.72Z" transform="translate(-8 -22.42)"/><path class="cls-4" d="M1713.74,241.83l-10.34-4.43-15.48-6.64-.27-.12a321.33,321.33,0,0,1-29.7-14.27c-9.34-5.29-15-9.9-18.36-14.76-3.54-5.14-4.51-10.55-4.51-17.33,0-13.5,8.74-23,22.87-25.71a46.71,46.71,0,0,1,8.84-.84c7.58,0,14.4.88,20.86,3.57,7.59,3.16,14.67,8.83,21.87,18.66a126.4,126.4,0,0,1,8.26,13L1727,209.5l.16-.1,5.28-6.22,84.31-99.32c-31.13-43.68-72.94-66.61-129.11-71-6.76-.54-13.67-.89-20.86-.89-3,0-5.92.07-8.84.18-95,3.65-160.51,66.1-160.51,154.4,0,20.65,2.77,39.42,8.3,56.57A146.75,146.75,0,0,0,1536,296c17.58,19.82,40.69,36.4,73.23,52.31q10.86,5.31,23.17,10.55L1658,369.78l.23.1c11.64,5.09,21.35,9.45,29.47,13.47,26,12.86,35.26,22,35.26,39,0,16-13.63,27.69-35.26,31.69a94.88,94.88,0,0,1-17.15,1.5,120.64,120.64,0,0,1-12.55-.65c-31.22-3.27-53.36-19.5-74.28-53.68l-8.09-13.2L1485,494.67c38,52.86,99.07,84.05,172.94,87.71,4.87.24,9.77.42,14.76.42s10-.16,14.94-.41c106.44-5.3,174.38-67.5,174.38-161.55C1862,324.7,1805.29,281.07,1713.74,241.83Z" transform="translate(-8 -22.42)"/><path class="cls-3" d="M661,149H646.3V319.59H661a215.92,215.92,0,0,0,34-2.42c42.83-6.83,59.85-27.32,66.13-51.53,2.57-9.93,3.34-20.49,3.34-31C764.44,174.59,733.51,149,661,149Z" transform="translate(-8 -22.42)"/><path class="cls-5" d="M316.63,207.19,450.83,33.77V22.42H148.29L54.46,144.22l215-.56L133.93,302.15l6.2,9.29C155.6,305.25,183.48,297,219.61,297c60.9,0,91.86,35.09,91.86,76.38s-31,72.26-80.51,72.26c-57.8,0-85.67-27.87-103.22-67.1L8,434.28c33.08,78.17,109,133,218.26,136.1l5.07-6L438.12,300.15C414.33,250.48,369.08,218.38,316.63,207.19Z" transform="translate(-8 -22.42)"/><path class="cls-4" d="M893.85,157.19C865.68,78,791.8,29.14,686.45,23.1L651,23,507.19,210.53V570.31l139.11-.16V448.81l2.26-2.66H664c149.6,0,242.54-81,242.54-211.5C906.52,206.4,902.15,180.5,893.85,157.19ZM761.1,265.64c-6.28,24.21-23.3,44.7-66.13,51.53a215.92,215.92,0,0,1-34,2.42H646.3V149H661c72.49,0,103.42,25.63,103.42,85.69C764.44,245.15,763.67,255.71,761.1,265.64Z" transform="translate(-8 -22.42)"/></svg>